<?xml version="1.0" standalone="no"?>
<!DOCTYPE svg PUBLIC "-//W3C//DTD SVG 20010904//EN"
 "http://www.w3.org/TR/2001/REC-SVG-20010904/DTD/svg10.dtd">
<svg version="1.0" xmlns="http://www.w3.org/2000/svg"
 width="434.000000pt" height="339.000000pt" viewBox="0 0 434.000000 339.000000"
 preserveAspectRatio="xMidYMid meet">
<metadata>
Created by potrace 1.16, written by Peter Selinger 2001-2019
</metadata>
<g transform="translate(0.000000,339.000000) scale(0.100000,-0.100000)"
fill="#000000" stroke="none">
<path d="M0 1695 l0 -1695 2170 0 2170 0 0 1695 0 1695 -2170 0 -2170 0 0
-1695z m1912 1266 c49 -31 73 -63 158 -208 37 -63 60 -93 72 -93 10 0 45 14
78 30 33 17 64 30 71 30 11 0 -212 -444 -234 -467 -12 -12 -26 -11 -267 17
-52 6 -128 13 -167 17 -40 3 -73 9 -73 12 0 3 33 24 73 46 52 30 72 46 71 61
0 11 -45 101 -100 202 -111 203 -118 209 -161 132 -29 -50 -52 -91 -85 -147
-12 -21 -28 -50 -35 -65 -8 -15 -18 -30 -22 -32 -4 -3 -31 10 -59 29 -28 19
-54 35 -57 35 -4 0 -26 14 -50 30 -24 17 -47 30 -50 30 -4 0 -19 8 -33 19 -15
10 -47 30 -72 44 -34 19 -44 31 -42 47 1 12 30 62 65 112 44 65 74 97 104 114
47 26 74 28 529 32 l240 2 46 -29z m1608 -36 c232 -61 389 -220 461 -468 21
-74 22 -83 11 -228 -14 -173 -44 -356 -79 -479 -13 -47 -31 -107 -39 -135 -16
-59 -19 -228 -3 -276 6 -19 33 -79 60 -134 62 -127 64 -169 15 -271 -118 -246
-374 -510 -595 -613 -55 -25 -59 -26 -301 -26 -266 0 -331 -10 -461 -69 -30
-14 -88 -30 -129 -36 -41 -6 -84 -15 -95 -20 -37 -16 -129 -23 -300 -23 -168
-1 -251 6 -290 23 -11 5 -36 11 -55 14 -69 10 -105 17 -125 26 -11 4 -40 13
-65 20 -25 6 -53 16 -62 21 -10 5 -26 9 -36 9 -10 0 -22 4 -27 8 -6 4 -28 14
-50 21 -67 21 -204 90 -269 133 -163 111 -254 245 -273 406 -10 86 70 197 184
251 110 53 176 66 303 57 82 -5 115 -12 183 -41 117 -49 147 -66 220 -124 36
-28 70 -51 77 -51 8 0 9 19 5 68 -5 47 -2 81 9 116 8 27 13 53 10 58 -3 4 -36
8 -74 8 l-69 0 -5 -32 c-3 -18 -7 -46 -8 -62 -3 -25 -18 -10 -149 155 -80 101
-156 198 -169 216 l-23 32 115 123 c63 68 140 150 171 183 l56 60 1 -71 c0
-49 4 -75 14 -83 16 -14 429 -12 442 2 7 7 -5 33 -54 120 -92 160 -102 177
-102 186 0 5 22 20 48 34 47 24 82 44 160 89 20 11 60 33 87 48 28 14 60 32
71 40 12 7 28 11 35 8 8 -3 34 -46 59 -94 24 -49 52 -100 61 -114 10 -14 19
-41 21 -60 9 -92 46 -3 93 221 85 412 275 671 555 756 65 20 91 23 195 19 68
-2 148 -11 185 -21z m-2459 -711 c55 -113 97 -209 94 -214 -2 -4 -35 3 -72 17
-36 13 -72 22 -78 19 -17 -6 -225 -355 -225 -378 0 -17 11 -18 155 -18 l155 0
0 -230 0 -230 -95 0 c-80 0 -101 4 -134 23 -36 20 -111 101 -111 120 0 5 -13
28 -30 52 -16 24 -30 47 -30 51 0 4 -11 19 -24 33 -21 24 -163 258 -215 356
-38 72 -30 114 54 284 41 84 75 160 75 170 0 11 -26 32 -75 60 -42 24 -78 47
-80 51 -8 13 248 35 458 39 l78 1 100 -206z"/>
</g>
</svg>
