<?xml version="1.0" standalone="no"?>
<!DOCTYPE svg PUBLIC "-//W3C//DTD SVG 20010904//EN"
 "http://www.w3.org/TR/2001/REC-SVG-20010904/DTD/svg10.dtd">
<svg version="1.0" xmlns="http://www.w3.org/2000/svg"
 width="578.000000pt" height="501.000000pt" viewBox="0 0 578.000000 501.000000"
 preserveAspectRatio="xMidYMid meet">
<metadata>
Created by potrace 1.16, written by Peter Selinger 2001-2019
</metadata>
<g transform="translate(0.000000,501.000000) scale(0.100000,-0.100000)"
fill="#000000" stroke="none">
<path d="M1960 4568 c-11 -18 -33 -73 -49 -123 -64 -199 -97 -475 -87 -735 l5
-155 -58 120 c-107 222 -258 453 -388 594 -54 59 -61 63 -81 52 -12 -6 -22
-16 -22 -20 0 -5 19 -42 42 -83 196 -346 375 -899 462 -1433 44 -270 46 -240
-20 -320 -133 -162 -261 -388 -310 -550 -25 -79 -28 -106 -28 -225 0 -120 3
-144 27 -215 66 -196 218 -367 404 -452 30 -14 51 -29 46 -33 -4 -5 -118 -72
-253 -150 -373 -216 -382 -222 -417 -268 -55 -73 -43 -151 30 -188 45 -24 132
-21 292 10 77 15 187 36 245 46 803 140 1103 200 1445 290 373 97 522 166 645
296 65 69 95 114 119 183 l17 49 78 -49 c143 -88 261 -111 349 -68 l43 21 73
-26 c40 -14 83 -26 97 -26 41 0 82 27 95 63 l12 33 86 -24 c70 -20 111 -25
216 -26 123 -1 133 1 181 26 115 60 106 188 -18 278 -73 53 -133 65 -315 64
-153 0 -163 1 -163 19 0 77 -92 104 -212 61 -41 -14 -43 -13 -28 14 5 9 14 29
19 43 8 21 19 28 68 38 130 29 193 75 193 143 0 22 -4 48 -10 58 -8 15 -2 21
53 40 79 29 209 94 267 133 204 141 239 289 88 372 -46 25 -64 29 -128 29
-127 -1 -262 -68 -425 -209 l-76 -66 -36 31 c-29 26 -42 31 -77 28 l-41 -3 -6
90 c-26 358 -163 559 -421 620 -126 30 -306 14 -474 -41 -42 -13 -79 -22 -82
-19 -10 10 19 158 49 250 53 160 141 302 275 445 41 44 74 86 74 94 0 9 -10
21 -22 27 -19 10 -29 4 -107 -79 -47 -49 -113 -131 -146 -181 l-60 -91 -26 77
c-39 114 -63 166 -115 246 -56 86 -143 172 -211 210 -44 23 -52 25 -69 13 -18
-13 -19 -29 -19 -208 1 -167 4 -206 24 -288 43 -174 119 -331 217 -452 24 -28
42 -53 41 -55 -2 -1 -39 9 -82 23 -292 93 -510 66 -666 -82 -69 -66 -126 -171
-155 -283 -10 -40 -23 -70 -29 -69 -5 2 -47 27 -91 56 l-82 53 -16 92 c-46
267 -153 1294 -182 1760 -7 104 -18 137 -45 137 -5 0 -18 -15 -29 -32z m25
-384 c54 -645 141 -1435 172 -1561 4 -18 -3 -26 -35 -42 l-40 -20 -7 62 c-13
117 -56 342 -91 472 -70 258 -105 618 -85 873 15 189 53 413 68 399 2 -2 10
-84 18 -183z m-397 -316 c197 -327 341 -743 401 -1154 28 -189 31 -174 -34
-174 -65 0 -70 6 -80 105 -12 123 -73 436 -119 616 -61 238 -145 494 -223 677
-3 6 -3 12 0 12 3 0 28 -37 55 -82z m1598 -85 c115 -111 194 -257 239 -440
l17 -73 -30 -97 c-17 -54 -35 -116 -39 -138 l-9 -40 -48 65 c-125 169 -196
405 -196 652 0 124 5 129 66 71z m-55 -887 c36 -8 108 -31 160 -51 51 -20 101
-37 109 -36 8 0 67 18 130 40 255 89 441 78 554 -33 92 -90 135 -210 151 -424
l7 -92 -43 -65 c-42 -65 -43 -65 -89 -65 -37 0 -57 -7 -91 -32 -24 -17 -52
-41 -61 -52 -28 -32 -84 -135 -108 -196 -12 -30 -25 -59 -29 -63 -5 -5 -31 3
-58 17 -68 36 -151 49 -255 42 -132 -9 -249 -53 -392 -146 -42 -27 -76 -46
-77 -42 0 4 0 39 1 77 1 123 -62 313 -147 442 -51 77 -178 209 -285 296 -49
39 -88 78 -88 87 0 29 59 136 101 184 108 122 286 161 510 112z m-831 -413
c299 -200 478 -410 535 -628 29 -115 7 -354 -35 -376 -205 -104 -493 -258
-624 -333 -194 -112 -185 -110 -313 -46 -176 89 -299 239 -352 430 -68 244 33
543 296 879 l51 64 103 2 c95 1 110 3 169 32 36 17 70 32 75 32 6 1 48 -25 95
-56z m2857 -97 c56 -26 71 -53 59 -102 -15 -58 -134 -157 -271 -226 -53 -27
-217 -83 -275 -93 -67 -12 -71 -15 -68 -43 3 -26 6 -27 58 -27 50 0 55 -2 64
-27 8 -22 6 -32 -9 -48 -22 -24 -117 -55 -200 -65 -33 -4 -66 -12 -72 -17 -19
-15 -16 -44 7 -59 19 -13 19 -15 2 -36 -15 -20 -21 -21 -63 -12 -80 17 -208
-24 -343 -109 l-40 -25 -16 24 c-8 13 -27 38 -43 55 l-28 32 32 79 c59 150
146 270 216 299 44 19 50 18 57 -12 5 -20 12 -25 33 -22 20 2 34 18 67 76 51
90 91 140 122 154 20 10 28 8 48 -11 13 -13 27 -33 30 -46 12 -47 36 -39 115
38 127 123 230 192 341 228 75 24 116 23 177 -5z m-1446 -746 c83 -25 151 -69
188 -120 137 -190 30 -439 -249 -580 -196 -100 -744 -231 -1560 -375 -317 -56
-581 -104 -625 -115 -53 -13 -152 -13 -176 0 -44 24 -13 87 68 137 86 54 804
469 978 565 449 249 842 432 1049 488 98 26 243 26 327 0z m697 -117 c2 -17
10 -34 19 -37 8 -4 44 7 79 24 75 35 147 55 170 46 13 -5 16 -16 11 -52 -5
-50 13 -80 42 -69 30 12 136 25 212 25 176 0 285 -45 319 -134 15 -40 5 -61
-37 -81 -91 -44 -314 -20 -477 50 -60 27 -83 32 -97 24 -33 -17 -16 -59 31
-74 11 -3 20 -15 20 -25 0 -48 -67 -42 -180 15 -38 19 -72 35 -74 35 -15 0
-36 -35 -31 -51 8 -24 -29 -34 -92 -25 -61 8 -123 37 -215 99 -77 51 -78 52
-78 94 0 42 1 43 70 84 114 67 176 89 245 86 59 -2 60 -2 63 -34z"/>
<path d="M3039 1354 c-11 -13 -10 -30 4 -99 31 -151 68 -207 107 -160 9 11 7
30 -14 92 -14 43 -28 96 -32 118 -11 63 -37 83 -65 49z"/>
<path d="M3411 1256 c-13 -15 13 -96 63 -193 29 -59 52 -76 78 -62 25 14 23
30 -15 101 -18 35 -43 87 -54 116 -23 54 -48 67 -72 38z"/>
<path d="M2730 1055 c-15 -19 13 -106 67 -202 35 -65 58 -78 83 -48 11 13 5
31 -33 108 -25 50 -48 103 -52 117 -12 41 -42 52 -65 25z"/>
<path d="M2313 1044 c-8 -20 11 -117 35 -183 19 -49 48 -65 71 -37 10 12 9 25
-5 68 -10 29 -23 78 -29 108 -10 49 -14 55 -38 58 -18 2 -29 -2 -34 -14z"/>
</g>
</svg>
